<?xml version="1.0" standalone="no"?>
<!DOCTYPE svg PUBLIC "-//W3C//DTD SVG 20010904//EN"
 "http://www.w3.org/TR/2001/REC-SVG-20010904/DTD/svg10.dtd">
<svg version="1.0" xmlns="http://www.w3.org/2000/svg"
 width="512.000000pt" height="512.000000pt" viewBox="0 0 512.000000 512.000000"
 preserveAspectRatio="xMidYMid meet">

<g transform="translate(0.000000,512.000000) scale(0.100000,-0.100000)"
fill="#000000" stroke="none">
<path d="M3305 4795 l-25 -24 0 -296 c0 -162 -3 -295 -7 -295 -5 0 -156 115
-337 255 -181 141 -339 258 -352 261 -14 4 -33 4 -43 1 -29 -7 -2197 -1684
-2225 -1720 -126 -166 -119 -389 18 -535 84 -90 219 -141 338 -128 l58 6 2
-986 3 -986 28 -24 28 -24 1749 0 1749 0 28 24 28 24 3 995 2 994 58 -15 c119
-31 270 15 366 111 65 65 93 117 112 208 25 122 -11 257 -94 348 -20 23 -179
151 -352 284 l-315 244 -5 627 -5 628 -28 24 -28 24 -365 0 -365 0 -24 -25z
m635 -750 l0 -595 33 -35 c17 -19 178 -146 356 -284 180 -139 334 -265 347
-285 86 -126 26 -296 -119 -342 -71 -22 -132 -13 -194 29 -36 25 -1526 1173
-1723 1328 -43 34 -81 44 -110 29 -12 -6 -415 -315 -897 -687 -481 -371 -896
-684 -921 -695 -88 -39 -213 -2 -267 80 -54 83 -54 180 -1 258 14 20 460 372
1072 844 l1048 808 61 -47 c305 -241 703 -543 723 -548 41 -10 89 20 101 64 7
23 11 164 11 356 l0 317 240 0 240 0 0 -595z m-573 -973 l798 -617 3 -988 2
-987 -495 0 -495 0 0 565 0 566 -25 24 -24 25 -561 0 -561 0 -24 -25 -25 -24
0 -566 0 -565 -525 0 -525 0 0 969 0 970 823 635 c452 349 825 635 829 636 3
0 366 -278 805 -618z m-367 -2092 l0 -500 -435 0 -435 0 0 500 0 500 435 0
435 0 0 -500z"/>
</g>
</svg>
