<?xml version="1.0" standalone="no"?>
<!DOCTYPE svg PUBLIC "-//W3C//DTD SVG 20010904//EN"
 "http://www.w3.org/TR/2001/REC-SVG-20010904/DTD/svg10.dtd">
<svg version="1.0" xmlns="http://www.w3.org/2000/svg"
 width="512.000000pt" height="512.000000pt" viewBox="0 0 512.000000 512.000000"
 preserveAspectRatio="xMidYMid meet">

<g transform="translate(0.000000,512.000000) scale(0.100000,-0.100000)"
fill="#000000" stroke="none">
<path d="M797 5109 c-58 -14 -115 -46 -162 -94 -52 -51 -78 -101 -94 -173 -16
-75 -16 -4489 0 -4564 23 -109 95 -198 197 -246 l57 -27 1675 0 1675 0 57 27
c75 35 138 94 174 165 l29 58 3 942 c2 911 3 942 21 948 43 13 102 67 128 117
l28 53 0 245 0 245 -28 53 c-26 50 -85 104 -128 117 -18 6 -19 37 -21 948 l-3
942 -29 58 c-36 71 -99 130 -174 165 l-57 27 -1655 2 c-945 0 -1671 -3 -1693
-8z m2035 -717 l3 -558 27 -41 c32 -48 80 -73 143 -73 56 0 66 5 177 87 l87
64 78 -59 c111 -84 136 -95 200 -90 60 5 96 26 131 78 l22 33 0 558 0 559 205
0 c185 0 210 -2 245 -20 47 -24 76 -63 89 -121 7 -28 11 -366 11 -925 l0 -882
-267 -4 c-226 -4 -276 -8 -318 -23 -101 -37 -175 -95 -232 -183 -46 -71 -66
-141 -66 -232 0 -154 70 -282 198 -365 99 -63 123 -67 418 -73 l267 -4 0 -882
c0 -559 -4 -897 -11 -925 -13 -58 -42 -97 -89 -121 -39 -20 -65 -20 -1675 -20
-1367 0 -1641 2 -1668 14 -39 16 -82 61 -96 99 -15 40 -15 4514 0 4554 14 37
57 82 94 99 24 11 216 13 1027 14 l997 0 3 -558z m708 22 c0 -425 -3 -534 -12
-528 -7 4 -56 40 -108 79 -117 89 -135 98 -167 90 -20 -5 -116 -72 -240 -168
-10 -7 -13 99 -13 527 l0 536 270 0 270 0 0 -536z m851 -1613 l29 -29 0 -212
0 -212 -30 -29 -29 -30 -318 3 c-355 3 -359 4 -433 78 -142 142 -88 373 105
447 20 8 128 12 338 12 l309 1 29 -29z"/>
<path d="M932 4754 c-23 -9 -33 -23 -41 -51 -15 -53 -15 -4233 0 -4286 18 -65
98 -82 139 -29 20 24 20 48 20 2172 0 2124 0 2148 -20 2172 -24 31 -59 39 -98
22z"/>
<path d="M3742 2617 c-30 -32 -29 -87 1 -115 50 -47 137 -10 137 58 0 69 -91
107 -138 57z"/>
</g>
</svg>
